<svg xmlns="http://www.w3.org/2000/svg" viewBox="0 0 1313 283" width="300" height="65" xmlns:v="https://vecta.io/nano"><path d="M298.6 196.2q-24.9 0-24.9-29.6v-53.3h-12.1V99.5h12.1V67l15.9-1.8v34.3h31.8v13.8h-31.8v50.9q0 8.8 2.6 13 2.7 4.1 9.2 4.1 7.4 0 16-4.9l4.4 13.9q-10.6 5.9-23.2 5.9zm-5.1 0q-24.9 0-24.9-29.6v-53.3h-12.2V99.5h12.2V67l15.8-1.8v34.3h31.8v13.8h-31.8v50.9q0 8.8 2.6 13 2.7 4.1 9.2 4.1 7.5 0 16.1-4.9l4.3 13.9q-10.6 5.9-23.1 5.9zm104.9 0q-22 0-35.7-13.9-13.7-14-13.7-34.9 0-21 13.7-34.9 13.7-14.1 35.7-14.1 21.2 0 35.1 13.7 13.9 13.7 13.9 35.3 0 21.5-13.9 35.3-13.9 13.5-35.1 13.5zm0-14.5q13.9 0 23.3-9.6 9.6-9.8 9.6-24.7 0-15.1-9.4-24.7-9.4-9.6-23.5-9.6-14.7 0-24.1 10-9.2 9.8-9.2 24.3 0 14.5 9.2 24.5 9.4 9.8 24.1 9.8zm-5.2 14.5q-21.9 0-35.6-13.9-13.8-14-13.8-34.9 0-21 13.8-34.9 13.7-14.1 35.6-14.1 21.2 0 35.1 13.7 13.9 13.7 13.9 35.3 0 21.5-13.9 35.3-13.9 13.5-35.1 13.5zm0-14.5q13.9 0 23.3-9.6 9.7-9.8 9.7-24.7 0-15.1-9.5-24.7-9.4-9.6-23.5-9.6-14.7 0-24.1 10-9.2 9.8-9.2 24.3 0 14.5 9.2 24.5 9.4 9.8 24.1 9.8zM505.4 195h-15.9V50.7h15.9zm-5.2 0h-15.8V50.8h15.8zm70.5 0h-15.9V50.7h15.9zm-5.2 0h-15.9V50.8h15.9zm125.7-82.1V99.5h15.7v88.2q0 22-11.6 34.7Q684 235 660.1 235q-21.6 0-38.9-10.4l3.8-14.7q17.8 10 34.3 10 15.5 0 23.7-7.9 8.4-8 8.4-20.2v-13.3h-.4q-11.9 14.7-32.3 14.7-19.6 0-32.9-13.1-13.4-13.2-13.4-34.1 0-20.4 13-33.9 13.1-13.8 32.5-13.8 20.2 0 32.9 14.6zm-31.3 65.4q14.3 0 23.1-9.2 8.8-9.4 8.8-23.9 0-14.1-9.2-22.9-9-9.1-22.7-9.1-13.6 0-22.4 9.3-8.8 9-8.8 22.9 0 14.9 9 23.9 9 9 22.2 9zm26.2-65.4V99.5h15.6v88.2q0 22-11.5 34.7-11.4 12.6-35.3 12.6-21.6 0-38.8-10.4l3.7-14.7q17.8 10 34.3 10 15.5 0 23.7-7.9 8.5-8 8.5-20.2v-13.3h-.4q-12 14.7-32.4 14.7-19.6 0-32.9-13.1-13.3-13.2-13.3-34.1 0-20.4 12.9-33.9 13.1-13.8 32.5-13.8 20.2 0 33 14.6zm-31.4 65.4q14.3 0 23.1-9.2 8.9-9.4 8.9-23.9 0-14.1-9.3-22.9-9-9.1-22.7-9.1-13.5 0-22.3 9.3-8.9 9-8.9 22.9 0 14.9 9.1 23.9 9 9 22.1 9zm171.8-64.5V99.5h15.8V195h-15.2v-15.1h-.2q-12.2 16.3-33.4 16.3-20.1 0-33.5-13.4-13.3-13.3-13.3-34.9 0-21.1 13.1-35.2 13.4-14.4 33.5-14.4 20.4 0 33 15.5zm-31.6 67.8q13.3 0 22.8-9.4 9.4-9.6 9.4-24.3 0-14.7-9.2-24.7-9.1-10.2-22.8-10.2-13.7 0-23.1 9.8-9.2 9.7-9.2 25.1 0 14.7 8.8 24.3 9 9.4 23.3 9.4zm26.4-67.8V99.5h15.9V195h-15.3v-15.1h-.2q-12.2 16.3-33.3 16.3-20.2 0-33.5-13.4-13.4-13.3-13.4-34.9 0-21.1 13.2-35.2 13.3-14.4 33.5-14.4 20.4 0 32.9 15.5zm-31.5 67.8q13.3 0 22.7-9.4 9.4-9.6 9.4-24.3 0-14.7-9.2-24.7-9-10.2-22.7-10.2-13.8 0-23.2 9.8-9.2 9.7-9.2 25.1 0 14.7 8.8 24.3 9 9.4 23.4 9.4zm125.1 14.6q-24.9 0-24.9-29.6v-53.4h-12.2V99.5H890V67l15.9-1.8v34.3h31.7v13.7h-31.7v51q0 8.8 2.5 12.9 2.8 4.2 9.2 4.2 7.5 0 16.1-4.9l4.3 13.9q-10.6 5.9-23.1 5.9zm-5.2 0q-24.9 0-24.9-29.6v-53.4h-12.1V99.5h12.1V67l15.9-1.8v34.3h31.7v13.7h-31.7v51q0 8.8 2.5 12.9 2.8 4.2 9.3 4.2 7.4 0 16-4.9l4.3 13.9q-10.5 5.9-23.1 5.9zm145.5-50.4q0 1.5-.2 4.1l-.2 2.3h-73.5q1.6 13.4 10.2 21.4 8.8 8 21.8 8 16.6 0 26.8-12.9l11.2 9.6q-13.9 17.9-38.6 17.9-20.6 0-34.1-13.6-13.4-13.7-13.4-35.3 0-21.3 13-35 13.1-14 32.7-14 19.8 0 32 13.4 12.3 13.3 12.3 34.1zm-24.9-25.7q-7.2-7.1-18.6-7.1-11.4 0-19.6 7.1-8 6.9-10.2 19h57.6q-1.9-11.9-9.2-19zm19.7 25.7q0 1.5-.2 4.1l-.1 2.3h-73.5q1.5 13.4 10.1 21.4 8.9 8 21.8 8 16.7 0 26.9-12.9l11.1 9.6q-13.9 17.9-38.6 17.9-20.6 0-34.1-13.6-13.3-13.7-13.3-35.3 0-21.3 12.9-35 13.1-14 32.7-14 19.8 0 32 13.4 12.3 13.3 12.3 34.1zm-24.8-25.7q-7.3-7.1-18.7-7.1-11.3 0-19.6 7.1-8 6.9-10.2 19h57.7q-2-11.9-9.2-19zm75.3 76.1q-4.9 0-8.2-3.2-3.2-3.3-3.2-7.8 0-4.7 3.2-7.9 3.3-3.3 8.2-3.3 4.5 0 7.8 3.3 3.4 3.2 3.4 7.9 0 4.5-3.4 7.8-3.3 3.2-7.8 3.2zm-5.2 0q-4.9 0-8.2-3.2-3.1-3.3-3.1-7.8 0-4.7 3.1-7.9 3.3-3.3 8.2-3.3 4.5 0 7.9 3.3 3.3 3.2 3.3 7.9 0 4.5-3.3 7.8-3.4 3.2-7.9 3.2zm68.9-114.3q-4.9 0-8.2-3.2-3.2-3.3-3.2-8 0-4.7 3.2-7.8 3.3-3.4 8.2-3.4 4.7 0 8 3.4 3.4 3.3 3.4 7.8 0 4.7-3.4 8-3.3 3.2-8 3.2zM1172 195h-15.8V99.5h15.8zm-13-113.1q-4.9 0-8.2-3.1-3.1-3.3-3.1-8 0-4.7 3.1-7.9 3.3-3.3 8.2-3.3 4.7 0 8.1 3.3 3.3 3.4 3.3 7.9 0 4.7-3.3 8-3.4 3.1-8.1 3.1zm7.9 113.1H1151V99.6h15.9zm96.7 1.1q-22 0-35.7-13.9-13.7-13.9-13.7-34.9 0-20.9 13.7-34.8 13.7-14.2 35.7-14.2 21.1 0 35 13.8 14 13.7 14 35.2 0 21.6-14 35.3-13.9 13.5-35 13.5zm0-14.5q13.9 0 23.3-9.6 9.6-9.8 9.6-24.7 0-15-9.4-24.7-9.4-9.6-23.5-9.6-14.7 0-24.1 10-9.3 9.8-9.3 24.3 0 14.5 9.3 24.5 9.4 9.8 24.1 9.8zm-5.2 14.5q-22 0-35.7-13.9-13.7-13.9-13.7-34.9 0-20.9 13.7-34.8 13.7-14.2 35.7-14.2 21.2 0 35.1 13.8 13.9 13.7 13.9 35.2 0 21.6-13.9 35.3-13.9 13.5-35.1 13.5zm0-14.5q13.9 0 23.3-9.6 9.6-9.8 9.6-24.7 0-15-9.4-24.7-9.4-9.6-23.5-9.6-14.7 0-24.1 10-9.2 9.8-9.2 24.3 0 14.5 9.2 24.5 9.4 9.8 24.1 9.8z" fill="#fff"/><path d="M134.4 116.4l-.5.5-.8-.8zM164 86.8l-17.6 17.5q-.5-.2-1-.3l-.6-.3-.6-.2-.7-.1-29.3-7.4 29.6-29.5c3.6-3.6 5.4-8.7 4.8-13.8-.5-5.1-3.3-9.7-7.7-12.5l-6.8-4.4-62.4 49.6-7.3 5.8-6.3 5-9.6 7.6-8.6 6.9c-3.8 4.1-5.3 9.7-4 15.3.7 3.4 2.5 6.4 4.9 8.7q2.4 2.1 5.5 3.3l20.8 5.2 32.4 8.1-23.6 23.6-3.1-.7-14-3.5-14-3.5-1.4-.4-5.4-1.3-.7-.3q-1-.3-2-.7-3.7-1.5-7-3.6c-10.2-6.3-17.6-16.5-20.4-28.6-3.5-15.4 1.1-31.2 12.2-42.4l.6-.6L132.4.6l24.1 15.6c11.6 7.5 19.1 19.7 20.6 33.5S173.8 77 164 86.8z" fill="#0446fa"/><path d="M44.8 167.2l-1.4-.4.5-.5zm112.9 26.1l-.6.6-111.7 88.7-24-15.6C9.7 259.5 2.2 247.3.7 233.5c-1.4-13.8 3.4-27.3 13.1-37.1l17.6-17.5q.5.2 1 .4l.7.2.6.2.7.2 29.2 7.3-29.5 29.5c-3.6 3.6-5.4 8.7-4.9 13.8.6 5.1 3.4 9.7 7.7 12.5l6.8 4.4 62.4-49.6 7.4-5.8 6.3-5 9.5-7.6 8.6-6.8c3.9-4.2 5.4-9.7 4.1-15.3-.8-3.5-2.5-6.5-5-8.7-1.5-1.5-3.4-2.6-5.4-3.4l-20.8-5.2-32.4-8.1 23.6-23.6 3.1.8 14 3.5 14 3.5 1.3.3 5.5 1.4.6.2q1 .3 2 .8 3.7 1.4 7 3.5c10.3 6.3 17.7 16.5 20.4 28.6 3.5 15.4-1 31.3-12.2 42.4z" fill="#00d5e3"/></svg>